<?xml version="1.0" encoding="UTF-8"?>
<svg width="752pt" height="752pt" version="1.1" viewBox="0 0 752 752" xmlns="http://www.w3.org/2000/svg">
 <g fill="#ffecdb">
  <path d="m568.75 471.19c-10.418 0-18.941 8.5234-18.941 18.941v25.102c0 8.9961-7.1055 15.629-16.102 15.629h-314.93c-8.5234 0-16.102-7.1055-16.102-15.629v-25.102c0-10.418-8.5234-18.941-18.941-18.941s-18.941 8.5234-18.941 18.941v25.102c0 29.363 24.152 53.516 53.988 53.516h314.93c29.836 0 53.988-24.152 53.988-53.516v-25.102c-0.003906-10.418-8.5273-18.941-18.945-18.941z"/>
  <path d="m359.9 473.56 2.3672 2.3672h0.94531l0.94531 0.94531h1.4219c0.47266 0 0.47266 0 0.94531 0.47266 0.94531 0.47266 1.8945 0.47266 3.3164 0.47266l6.1602 0.003906c1.4219 0 2.3672-0.47266 3.3164-0.47266 0.47266 0 1.4219-0.47266 1.8945-0.94531 0.47266 0 0.47266-0.47266 0.94531-0.47266h0.94531l1.8945-1.8945 86.668-74.355c7.5781-7.1055 8.5234-18.941 1.8945-26.52-7.1055-7.5781-18.941-8.5234-26.52-1.8945l-54.461 46.883v-217.37l-0.47266-0.94531c-2.8398-9.9453-11.367-16.574-20.363-16.574-10.418 0-18.941 8.5234-18.941 18.941v215.48l-54.465-46.414c-3.7891-3.3164-8.5234-5.2109-13.734-4.7344-5.2109 0.47266-9.9453 2.8398-12.785 6.6289-3.3164 3.7891-5.2109 8.5234-4.7344 13.734 0.47266 5.2109 2.8398 9.9453 6.6289 12.785z"/>
 </g>
</svg>
