<?xml version="1.0" encoding="UTF-8"?>
<svg width="752pt" height="752pt" version="1.1" viewBox="0 0 752 752" xmlns="http://www.w3.org/2000/svg">
 <path d="m210.25 243.4c-15.742 0-28.414 12.672-28.414 28.414v208.38c0 15.742 12.672 28.414 28.414 28.414h331.51c15.742 0 28.414-12.672 28.414-28.414v-208.38c0-15.742-12.672-28.414-28.414-28.414zm19.98 47.211c3.0898-0.28516 5.9531 0.51562 7.6953 2.6641l124.76 115.29c7.7695 7.1875 18.551 7.1875 26.344 0l125.05-115.29c3.6406-3.3711 10.023-3.125 13.395 0.51953 3.3711 3.6406 3.125 10.023-0.51953 13.395l-76.66 70.594 76.363 66.746c3.7812 3.2461 4.2578 9.6523 0.99219 13.422-3.2617 3.7695-9.6719 4.2148-13.426 0.93359l-77.992-68.078-34.336 31.672c-14.703 13.566-37.398 13.594-52.094 0l-34.188-31.672-77.844 68.078c-3.7539 3.2812-10.16 2.832-13.426-0.93359-3.2617-3.7695-2.7891-10.172 0.99219-13.422l76.215-66.598-76.512-70.742c-2.7656-2.3984-3.9297-6.4883-2.8359-9.9844s4.3789-6.1953 8.0156-6.5898z"/>
</svg>
